# File created by Blade
# Date/Time:  Fri Jan 16 19:00:24 2015
# Frame Rate: 120.000 fps
#------------------------------------------------------
:FULLY-SPECIFIED
:DEGREES
2209
root 18.349738 36.756598 -23.008862 -142.050730 17.090204 -159.411259
Spine -31.361116 26.152873 -6.113031
Head -0.675434 -4.706769 12.464933
LeftShoulder -11.977267 -25.078570 19.109041
LeftArm -18.118448 -7.430158 -8.471001
LeftForeArm -5.660485 -0.000000 7.086962
LeftHand -3.758703 -0.000000 3.067367
LeftHandThumb1 -26.253704 0.000000 33.147579
RightShoulder -10.916886 -8.018243 5.075000
RightArm 11.969964 41.158253 35.806695
RightForeArm -34.885013 -0.000000 29.973801
RightHand -15.963225 -0.000000 -3.579888
RightHandThumb1 -24.326973 -0.000000 -32.862282
LeftUpLeg -26.679018 15.939725 2.521775
LeftLeg -4.196561 -0.000000 0.000000
LeftFoot -22.922145 35.480555 -10.028612
LeftToeBase 18.979634 -0.000000 -0.000000
RightUpLeg 8.670456 -18.682855 -11.623463
RightLeg 94.478107 -0.000000 -0.000000
RightFoot 37.076452 -44.907337 -17.984042
RightToeBase 20.868795 -0.000000 -0.000000
2210
root 18.317653 36.747267 -23.014548 -142.331461 16.954776 -159.534665
Spine -31.093912 26.124708 -5.790977
Head -0.540924 -4.784398 12.269652
LeftShoulder -11.980848 -25.147054 19.091807
LeftArm -18.083327 -7.401999 -8.465260
LeftForeArm -5.729967 -0.000000 7.180478
LeftHand -3.851902 -0.000000 3.098857
LeftHandThumb1 -26.253704 0.000000 33.147579
RightShoulder -11.040855 -8.103544 5.106470
RightArm 11.863673 40.989032 35.698612
RightForeArm -34.811204 -0.000000 29.644261
RightHand -15.920998 -0.000000 -3.710205
RightHandThumb1 -24.326973 -0.000000 -32.862282
LeftUpLeg -26.485229 15.745295 2.509725
LeftLeg -4.151441 -0.000000 0.000000
LeftFoot -22.910849 35.451853 -9.943138
LeftToeBase 19.034331 -0.000000 -0.000000
RightUpLeg 8.456269 -18.858790 -11.912071
RightLeg 94.508209 -0.000000 -0.000000
RightFoot 37.075211 -44.962645 -17.957637
RightToeBase 20.729236 -0.000000 -0.000000
2211
root 18.285299 36.736762 -23.020966 -142.623601 16.864103 -159.648879
Spine -30.843191 26.130628 -5.469827
Head -0.321074 -4.906305 12.007391
LeftShoulder -12.019560 -25.103630 19.082937
LeftArm -17.942155 -7.496925 -8.511298
LeftForeArm -5.784345 -0.000000 7.192928
LeftHand -3.823905 0.000000 3.099597
LeftHandThumb1 -26.253704 0.000000 33.147579
RightShoulder -11.159433 -8.236995 5.121852
RightArm 11.853368 40.951022 35.724732
RightForeArm -34.948282 -0.000000 29.340187
RightHand -16.134680 0.000000 -3.865665
RightHandThumb1 -24.326973 -0.000000 -32.862282
LeftUpLeg -26.261959 15.582703 2.487684
LeftLeg -4.116007 -0.000000 0.000000
LeftFoot -22.904526 35.445679 -9.839820
LeftToeBase 19.133911 -0.000000 -0.000000
RightUpLeg 8.229106 -19.026158 -12.247182
RightLeg 94.546703 -0.000000 -0.000000
RightFoot 36.936029 -45.049082 -17.872072
RightToeBase 21.092736 -0.000000 -0.000000
2212
root 18.251111 36.725225 -23.025824 -142.939619 16.769965 -159.749155
Spine -30.538655 26.139647 -5.102708
Head -0.130589 -4.949539 11.775819
LeftShoulder -11.974067 -25.171843 19.043941
LeftArm -17.989283 -7.558967 -8.440484
LeftForeArm -5.447485 -0.000000 7.254249
LeftHand -3.732758 -0.000000 2.802046
LeftHandThumb1 -26.253704 0.000000 33.147579
RightShoulder -11.134787 -8.113202 5.066621
RightArm 11.482051 40.956818 35.603884
RightForeArm -35.142976 -0.000000 29.111628
RightHand -16.280091 -0.000000 -4.096727
RightHandThumb1 -24.326973 -0.000000 -32.862282
LeftUpLeg -26.027990 15.482114 2.446677
LeftLeg -4.070625 -0.000000 0.000000
LeftFoot -22.923750 35.385225 -9.733943
LeftToeBase 19.265551 -0.000000 -0.000000
RightUpLeg 8.005171 -19.216770 -12.595699
RightLeg 94.610815 -0.000000 -0.000000
RightFoot 36.849655 -45.080254 -17.798477
RightToeBase 21.018428 -0.000000 -0.000000
2213
root 18.212087 36.712824 -23.028121 -143.237653 16.699494 -159.861096
Spine -30.238908 26.138470 -4.744462
Head 0.074270 -5.028132 11.493978
LeftShoulder -12.061313 -25.192605 19.049535
LeftArm -17.868573 -7.596226 -8.514164
LeftForeArm -5.642605 -0.000000 7.286621
LeftHand -3.738253 0.000000 2.968189
LeftHandThumb1 -26.253704 0.000000 33.147579
RightShoulder -11.148412 -8.071382 5.014021
RightArm 11.214073 40.945345 35.548529
RightForeArm -35.263030 -0.000000 28.958401
RightHand -16.456746 -0.000000 -4.172489
RightHandThumb1 -24.326973 -0.000000 -32.862282
LeftUpLeg -25.843790 15.400054 2.368426
LeftLeg -3.978538 -0.000000 0.000000
LeftFoot -22.945639 35.297042 -9.623782
LeftToeBase 19.316293 -0.000000 -0.000000
RightUpLeg 7.735333 -19.431698 -12.999048
RightLeg 94.715495 -0.000000 -0.000000
RightFoot 36.874817 -44.904213 -18.070540
RightToeBase 21.229355 -0.000000 -0.000000
2214
root 18.172340 36.702361 -23.027796 -143.520252 16.656396 -159.964934
Spine -29.963401 26.168707 -4.407604
Head 0.288488 -5.064689 11.250426
LeftShoulder -12.049988 -25.240366 19.015752
LeftArm -17.847329 -7.594782 -8.520454
LeftForeArm -5.739357 -0.000000 7.306626
LeftHand -3.740889 -0.000000 3.041085
LeftHandThumb1 -26.253704 0.000000 33.147579
RightShoulder -11.214922 -8.063499 4.989110
RightArm 11.100275 41.086780 35.625942
RightForeArm -35.501926 -0.000000 28.820799
RightHand -16.652924 -0.000000 -4.260089
RightHandThumb1 -24.326973 -0.000000 -32.862282
LeftUpLeg -25.679139 15.287491 2.310300
LeftLeg -3.851114 -0.000000 0.000000
LeftFoot -23.069030 35.185139 -9.709280
LeftToeBase 19.317623 -0.000000 -0.000000
RightUpLeg 7.399737 -19.658995 -13.408656
RightLeg 94.826927 -0.000000 -0.000000
RightFoot 36.783671 -44.874816 -18.006859
RightToeBase 21.342585 -0.000000 -0.000000
2215
root 18.127627 36.689334 -23.032047 -143.812090 16.691174 -160.058880
Spine -29.693258 26.255410 -4.101368
Head 0.542870 -5.153071 10.992789
LeftShoulder -12.056018 -25.246973 19.003558
LeftArm -17.824686 -7.856365 -8.480173
LeftForeArm -5.427302 -0.000000 7.300672
LeftHand -3.698042 0.000000 2.991382
LeftHandThumb1 -26.253704 0.000000 33.147579
RightShoulder -11.230362 -8.031628 4.979191
RightArm 10.881151 41.188598 35.588471
RightForeArm -35.620425 -0.000000 28.669807
RightHand -16.692985 -0.000000 -4.425064
RightHandThumb1 -24.326973 -0.000000 -32.862282
LeftUpLeg -25.460780 15.192207 2.230441
LeftLeg -3.764494 -0.000000 0.000000
LeftFoot -23.057109 35.261964 -9.533430
LeftToeBase 19.348459 -0.000000 -0.000000
RightUpLeg 7.023564 -19.845639 -13.860520
RightLeg 94.975249 -0.000000 -0.000000
RightFoot 36.799807 -44.724474 -18.110466
RightToeBase 21.295897 -0.000000 -0.000000
2216
root 18.080118 36.678191 -23.032343 -144.075605 16.747681 -160.141030
Spine -29.417245 26.313828 -3.776965
Head 0.750235 -5.074721 10.769093
LeftShoulder -12.103802 -25.348501 19.017056
LeftArm -17.886778 -7.850179 -8.460756
LeftForeArm -5.437274 -0.000000 7.407432
LeftHand -3.805285 -0.000000 3.098378
LeftHandThumb1 -26.253704 0.000000 33.147579
RightShoulder -11.204582 -7.897686 4.943045
RightArm 10.605038 41.268587 35.543551
RightForeArm -35.762947 -0.000000 28.565426
RightHand -16.946493 -0.000000 -4.575923
RightHandThumb1 -24.326973 -0.000000 -32.862282
LeftUpLeg -25.287992 15.105587 2.149908
LeftLeg -3.637994 -0.000000 0.000000
LeftFoot -23.101309 35.278633 -9.474987
LeftToeBase 19.344067 -0.000000 -0.000000
RightUpLeg 6.569382 -20.060518 -14.333990
RightLeg 95.139608 -0.000000 -0.000000
RightFoot 36.775142 -44.721076 -18.090966
RightToeBase 21.157082 -0.000000 -0.000000
2217
root 18.034599 36.667338 -23.033352 -144.369781 16.799567 -160.195512
Spine -29.073192 26.410056 -3.395618
Head 0.883535 -5.124785 10.509487
LeftShoulder -12.151819 -25.380899 19.008941
LeftArm -17.957756 -7.872506 -8.499052
LeftForeArm -5.381585 -0.000000 7.599735
LeftHand -3.906139 0.000000 3.138603
LeftHandThumb1 -26.253704 0.000000 33.147579
RightShoulder -11.325575 -8.004880 4.977379
RightArm 10.708446 41.461608 35.676385
RightForeArm -35.900169 -0.000000 28.409751
RightHand -16.912224 0.000000 -4.751355
RightHandThumb1 -24.326973 -0.000000 -32.862282
LeftUpLeg -25.067174 14.999333 2.126388
LeftLeg -3.516597 -0.000000 0.000000
LeftFoot -23.165443 35.347581 -9.394251
LeftToeBase 19.406265 -0.000000 -0.000000
RightUpLeg 6.131388 -20.285812 -14.782737
RightLeg 95.307038 -0.000000 -0.000000
RightFoot 36.722136 -44.645247 -18.111306
RightToeBase 21.173254 -0.000000 -0.000000
2218
root 17.983057 36.656393 -23.030921 -144.662263 16.920861 -160.260291
Spine -28.712074 26.524795 -3.039156
Head 1.040806 -5.022188 10.252571
LeftShoulder -12.211611 -25.455847 19.007434
LeftArm -18.038167 -7.867622 -8.516838
LeftForeArm -5.354749 0.000000 7.691751
LeftHand -3.955303 -0.000000 3.266868
LeftHandThumb1 -26.253704 0.000000 33.147579
RightShoulder -11.350394 -8.038760 4.915301
RightArm 10.726367 41.774675 35.917720
RightForeArm -36.158964 -0.000000 28.310843
RightHand -17.188278 0.000000 -4.757344
RightHandThumb1 -24.326973 -0.000000 -32.862282
LeftUpLeg -24.830431 14.870280 2.080076
LeftLeg -3.410885 -0.000000 0.000000
LeftFoot -23.236852 35.458828 -9.388730
LeftToeBase 19.378571 -0.000000 -0.000000
RightUpLeg 5.624239 -20.497800 -15.295703
RightLeg 95.527968 -0.000000 -0.000000
RightFoot 36.714873 -44.527142 -18.183903
RightToeBase 21.034234 -0.000000 -0.000000
2219
root 17.934237 36.647328 -23.030645 -144.957079 17.034500 -160.300159
Spine -28.337210 26.660342 -2.651524
Head 1.152214 -5.003462 9.999705
LeftShoulder -12.243090 -25.540098 18.957227
LeftArm -18.085150 -7.831821 -8.496090
LeftForeArm -5.334371 0.000000 7.689736
LeftHand -3.957736 0.000000 3.358530
LeftHandThumb1 -26.253704 0.000000 33.147579
RightShoulder -11.357266 -7.942760 4.884629
RightArm 10.534918 41.983813 35.962217
RightForeArm -36.329783 -0.000000 28.339707
RightHand -17.357191 0.000000 -4.976556
RightHandThumb1 -24.326973 -0.000000 -32.862282
LeftUpLeg -24.570826 14.742520 2.073066
LeftLeg -3.314051 -0.000000 0.000000
LeftFoot -23.302975 35.559955 -9.356568
LeftToeBase 19.385732 -0.000000 -0.000000
RightUpLeg 5.111672 -20.702457 -15.743736
RightLeg 95.726744 -0.000000 -0.000000
RightFoot 36.638823 -44.341177 -18.319794
RightToeBase 21.289315 -0.000000 -0.000000
2220
root 17.890849 36.640740 -23.031351 -145.275782 17.143076 -160.253015
Spine -27.909191 26.812361 -2.131404
Head 1.347191 -4.884461 9.757312
LeftShoulder -12.276867 -25.565788 18.906927
LeftArm -18.196447 -7.844868 -8.491912
LeftForeArm -5.336677 -0.000000 7.754996
LeftHand -3.920011 0.000000 3.440985
LeftHandThumb1 -26.253704 0.000000 33.147579
RightShoulder -11.342095 -7.882292 4.833110
RightArm 10.381129 42.202893 36.010241
RightForeArm -36.554250 0.000000 28.303261
RightHand -17.636193 -0.000000 -4.970825
RightHandThumb1 -24.326973 -0.000000 -32.862282
LeftUpLeg -24.237471 14.703332 2.140170
LeftLeg -3.260699 -0.000000 0.000000
LeftFoot -23.335794 35.659769 -9.227619
LeftToeBase 19.494813 -0.000000 -0.000000
RightUpLeg 4.613805 -20.851747 -16.053356
RightLeg 95.920595 -0.000000 -0.000000
RightFoot 36.590305 -44.004634 -18.605356
RightToeBase 21.433861 -0.000000 -0.000000
